<svg width="1000" height="600" viewBox="0 0 1000 600" fill="none" xmlns="http://www.w3.org/2000/svg">
  <rect width="1000" height="600" rx="12" fill="#0A0A0A"/>
  
  <rect width="220" height="600" fill="#0D0D0D"/>
  <line x1="220" y1="0" x2="220" y2="600" stroke="#1F1F1F" stroke-width="1"/>
  
  <rect x="20" y="20" width="100" height="12" rx="3" fill="#222"/>
  <rect x="20" y="60" width="24" height="24" rx="6" fill="#1A1A1A" stroke="#333"/>
  <rect x="54" y="60" width="24" height="24" rx="6" fill="#1A1A1A" stroke="#333"/>
  <rect x="88" y="60" width="24" height="24" rx="6" fill="#1A1A1A" stroke="#333"/>
  <rect x="180" y="60" width="20" height="20" rx="4" fill="#1A1A1A" stroke="#333"/>

  <rect x="20" y="110" width="180" height="14" rx="2" fill="#1A1A1A"/>
  <rect x="20" y="140" width="180" height="36" rx="6" fill="#141414" stroke="#1F1F1F"/>
  <rect x="35" y="152" width="12" height="12" rx="2" fill="#444"/>
  <rect x="55" y="154" width="80" height="8" rx="2" fill="#666"/>
  
  <rect x="40" y="190" width="140" height="8" rx="2" fill="#333"/>
  <rect x="40" y="215" width="140" height="8" rx="2" fill="#333"/>
  <rect x="40" y="240" width="140" height="8" rx="2" fill="#333"/>

  <rect x="220" y="0" width="780" height="40" fill="#111111"/>
  <line x1="220" y1="40" x2="1000" y2="40" stroke="#1F1F1F" stroke-width="1"/>
  
  <rect x="230" y="10" width="70" height="20" rx="4" fill="#1A1A1A" stroke="#222"/>
  <rect x="305" y="10" width="70" height="20" rx="4" fill="#1A1A1A" stroke="#222"/>
  <rect x="380" y="10" width="70" height="20" rx="4" fill="#1A1A1A" stroke="#222"/>
  <rect x="455" y="10" width="70" height="20" rx="4" fill="#1A1A1A" stroke="#222"/>

  <rect x="235" y="55" width="40" height="18" rx="4" fill="#1A1A1A" stroke="#333"/>
  <rect x="280" y="55" width="55" height="18" rx="4" fill="#1A1A1A" stroke="#333"/>
  <rect x="340" y="55" width="45" height="18" rx="4" fill="#1A1A1A" stroke="#333"/>
  
  <rect x="740" y="55" width="70" height="18" rx="4" fill="#1A1A1A" stroke="#333"/>
  <rect x="815" y="55" width="50" height="18" rx="4" fill="#1A1A1A" stroke="#333"/>
  <rect x="870" y="55" width="90" height="18" rx="4" fill="#1A1A1A" stroke="#333"/>

  <rect x="250" y="110" width="200" height="22" rx="4" fill="#F2F2F2" fill-opacity="0.9"/>
  <rect x="250" y="145" width="500" height="8" rx="2" fill="#2A2A2A"/>
  <rect x="250" y="160" width="420" height="8" rx="2" fill="#2A2A2A"/>

  <rect x="250" y="190" width="80" height="12" rx="2" fill="#555"/>
  <line x1="250" y1="215" x2="950" y2="215" stroke="#1F1F1F" stroke-width="1"/>

  <rect x="250" y="235" width="110" height="24" rx="6" fill="#1A1A1A" stroke="#333"/>
  <rect x="260" y="243" width="8" height="8" rx="1" fill="#444"/>
  <rect x="275" y="243" width="70" height="8" rx="2" fill="#444"/>

  <rect x="250" y="280" width="710" height="280" rx="8" stroke="#1F1F1F" stroke-width="1"/>
  
  <rect x="250" y="280" width="236" height="32" rx="8" fill="#1A1A1A"/>
  <rect x="265" y="291" width="40" height="10" rx="2" fill="#FF4444" fill-opacity="0.3"/>
  
  <rect x="486" y="280" width="236" height="32" rx="8" fill="#1A1A1A"/>
  <rect x="501" y="291" width="60" height="10" rx="2" fill="#888888" fill-opacity="0.3"/>
  
  <rect x="722" y="280" width="238" height="32" rx="8" fill="#1A1A1A"/>
  <rect x="737" y="291" width="40" height="10" rx="2" fill="#00C853" fill-opacity="0.3"/>

  <line x1="486" y1="280" x2="486" y2="560" stroke="#1F1F1F" stroke-width="1"/>
  <line x1="722" y1="280" x2="722" y2="560" stroke="#1F1F1F" stroke-width="1"/>

  <rect x="260" y="330" width="216" height="80" rx="6" fill="#0F0F0F" stroke="#1F1F1F"/>
  <rect x="275" y="345" width="45" height="14" rx="4" fill="#1A1A1A" stroke="#333"/>
  <rect x="275" y="375" width="160" height="6" rx="2" fill="#2A2A2A"/>

  <rect x="496" y="330" width="216" height="80" rx="6" fill="#0F0F0F" stroke="#1F1F1F"/>
  <rect x="511" y="345" width="65" height="14" rx="4" fill="#1A1A1A" stroke="#333"/>
  <rect x="511" y="375" width="180" height="6" rx="2" fill="#2A2A2A"/>
  <rect x="511" y="390" width="120" height="6" rx="2" fill="#2A2A2A"/>

  <rect x="732" y="330" width="216" height="80" rx="6" fill="#0F0F0F" stroke="#1F1F1F"/>
  <rect x="747" y="345" width="45" height="14" rx="4" fill="#1A1A1A" stroke="#333"/>
  <rect x="747" y="375" width="180" height="6" rx="2" fill="#2A2A2A"/>

  <circle cx="970" cy="955" r="10" fill="#222"/>
  <circle cx="210" cy="570" r="12" fill="#1A1A1A" stroke="#333"/>
</svg>