<svg width="320" height="180" viewBox="0 0 320 180" fill="none" xmlns="http://www.w3.org/2000/svg">
  <rect width="320" height="180" fill="#171717"/>
  <text x="10" y="20" font-size="10" font-weight="700" fill="#E8E8E8" font-family="Arial, sans-serif">colors</text>
  <text x="10" y="39" font-size="8" fill="#8A8A8A" font-family="Arial, sans-serif">choose your fav colors</text>
  <line x1="10" y1="54" x2="310" y2="54" stroke="#454545"/>
  <text x="10" y="74" font-size="9" font-weight="700" fill="#E8E8E8" font-family="Arial, sans-serif">New color</text>
  <path d="M62 68L66 72L70 68" stroke="#E8E8E8" stroke-width="1.5" stroke-linecap="round" stroke-linejoin="round"/>
  <rect x="10" y="85" width="300" height="22" rx="5" fill="#0C0C0C"/>
  <text x="18" y="99" font-size="8" fill="#6F6F6F" font-family="Arial, sans-serif">Color name or hex code...</text>
  <rect x="10" y="116" width="90" height="20" rx="4" fill="#171717" stroke="#8A8A8A"/>
  <text x="18" y="129" font-size="8" fill="#E8E8E8" font-family="Arial, sans-serif">other</text>
  <path d="M86 123L90 127L94 123" stroke="#454545" stroke-width="1.8" stroke-linecap="round" stroke-linejoin="round"/>
  <rect x="10" y="145" width="48" height="22" rx="5" fill="#2D6BFF" />
  <text x="18" y="159" font-size="8" fill="#F2F6FF" font-family="Arial, sans-serif">Add color</text>
  <line x1="10" y1="172" x2="310" y2="172" stroke="#454545"/>
  <rect x="10" y="184" width="9" height="9" rx="2" fill="#FF6B6B" stroke="#8A8A8A"/>
  <text x="28" y="192" font-size="8" fill="#E8E8E8" font-family="Arial, sans-serif">red</text>
  <text x="50" y="192" font-size="8" fill="#8A8A8A" font-family="Arial, sans-serif">primary</text>
  <rect x="272" y="182" width="38" height="14" rx="4" fill="#171717" stroke="#454545"/>
  <path d="M280 186.5H286M281 186.5L281.5 193H284.5L285 186.5M282 186.5V185.5C282 185.2 282.2 185 282.5 185H283.5C283.8 185 284 185.2 284 185.5V186.5" stroke="#E8E8E8" stroke-width="0.9" stroke-linecap="round" stroke-linejoin="round"/>
  <text x="289" y="192" font-size="7" fill="#E8E8E8" font-family="Arial, sans-serif">Remove</text>
</svg>
