<svg width="320" height="180" viewBox="0 0 320 180" fill="none" xmlns="http://www.w3.org/2000/svg">
  <rect width="320" height="180" fill="#171717"/>
  <text x="10" y="20" font-size="10" fill="#E8E8E8" font-family="Arial, sans-serif">Calendar layout</text>
  <rect x="10" y="28" width="196" height="5" rx="2.5" fill="#777"/>
  <line x1="10" y1="40" x2="310" y2="40" stroke="#454545"/>
  <rect x="10" y="46" width="38" height="6" rx="3" fill="#EAEAEA"/>
  <rect x="258" y="46" width="52" height="6" rx="3" fill="#6E6E6E"/>
  <line x1="10" y1="58" x2="310" y2="58" stroke="#454545"/>
  <rect x="10" y="66" width="300" height="92" rx="4" fill="#1A1A1D" stroke="#454545"/>
  <line x1="52.8571" y1="66" x2="52.8571" y2="158" stroke="#454545"/>
  <line x1="95.7143" y1="66" x2="95.7143" y2="158" stroke="#454545"/>
  <line x1="138.571" y1="66" x2="138.571" y2="158" stroke="#454545"/>
  <line x1="181.429" y1="66" x2="181.429" y2="158" stroke="#454545"/>
  <line x1="224.286" y1="66" x2="224.286" y2="158" stroke="#454545"/>
  <line x1="267.143" y1="66" x2="267.143" y2="158" stroke="#454545"/>
  <line x1="10" y1="88.5" x2="310" y2="88.5" stroke="#454545"/>
  <line x1="10" y1="111" x2="310" y2="111" stroke="#454545"/>
  <line x1="10" y1="133.5" x2="310" y2="133.5" stroke="#454545"/>
  <rect x="18" y="74" width="16" height="4" rx="2" fill="#7A7A7A"/>
  <rect x="60" y="74" width="16" height="4" rx="2" fill="#7A7A7A"/>
  <rect x="103" y="74" width="16" height="4" rx="2" fill="#7A7A7A"/>
  <rect x="146" y="74" width="16" height="4" rx="2" fill="#7A7A7A"/>
  <rect x="189" y="74" width="16" height="4" rx="2" fill="#7A7A7A"/>
  <rect x="232" y="74" width="16" height="4" rx="2" fill="#7A7A7A"/>
  <rect x="275" y="74" width="16" height="4" rx="2" fill="#7A7A7A"/>
  <rect x="17" y="96" width="28" height="7" rx="3.5" fill="#5C6470"/>
  <rect x="103" y="96" width="24" height="31" rx="4" fill="#152238" stroke="#0061FF"/>
  <rect x="146" y="96" width="26" height="7" rx="3.5" fill="#D8D8D8"/>
  <rect x="233" y="96" width="28" height="7" rx="3.5" fill="#1B2B21" stroke="#16A34A"/>
  <rect x="61" y="118" width="24" height="7" rx="3.5" fill="#8E8E8E"/>
  <rect x="189" y="118" width="34" height="7" rx="3.5" fill="#8E8E8E"/>
  <rect x="104" y="141" width="28" height="7" rx="3.5" fill="#2B1E1F" stroke="#E11D48"/>
  <rect x="232" y="141" width="38" height="7" rx="3.5" fill="#8E8E8E"/>
</svg>
