<svg width="320" height="200" viewBox="0 0 320 200" fill="none" xmlns="http://www.w3.org/2000/svg">
  <rect width="320" height="200" rx="18" fill="#111214"/>
  <rect x="28" y="26" width="264" height="148" rx="14" fill="#1A1B1F" stroke="#313338"/>
  <rect x="28" y="26" width="264" height="34" rx="14" fill="#202228"/>
  <circle cx="66" cy="43" r="7" fill="#0061FF"/>
  <circle cx="92" cy="43" r="7" fill="#8C8B8B"/>
  <circle cx="118" cy="43" r="7" fill="#8C8B8B"/>
  <rect x="46" y="78" width="24" height="20" rx="6" fill="#0061FF" fill-opacity="0.2"/>
  <rect x="82" y="78" width="54" height="20" rx="6" fill="#313338"/>
  <rect x="146" y="78" width="54" height="20" rx="6" fill="#313338"/>
  <rect x="210" y="78" width="54" height="20" rx="6" fill="#313338"/>
  <rect x="46" y="108" width="88" height="24" rx="8" fill="#A5F3FC" fill-opacity="0.12" stroke="#0891B2"/>
  <rect x="146" y="108" width="118" height="24" rx="8" fill="#F0ABFC" fill-opacity="0.12" stroke="#D946EF"/>
  <rect x="46" y="142" width="54" height="20" rx="6" fill="#313338"/>
  <rect x="110" y="142" width="54" height="20" rx="6" fill="#313338"/>
  <rect x="174" y="142" width="90" height="20" rx="6" fill="#FDA4AF" fill-opacity="0.12" stroke="#E11D48"/>
</svg>
