<svg width="320" height="180" viewBox="0 0 320 180" fill="none" xmlns="http://www.w3.org/2000/svg">
  <rect width="320" height="180" fill="#171717"/>
  <text x="10" y="20" font-size="10" fill="#E8E8E8" font-family="Arial, sans-serif">Idea Board</text>
  <rect x="10" y="30" width="240" height="5" rx="2.5" fill="#777"/>
  <rect x="10" y="40" width="180" height="5" rx="2.5" fill="#777" opacity="0.7"/>
  <line x1="10" y1="52" x2="310" y2="52" stroke="#454545"/>
  <text x="10" y="71" font-size="8" fill="#E8E8E8" font-family="Arial, sans-serif">Add Idea</text>
  <path d="M72 63L78 69L72 75" stroke="#E8E8E8" stroke-width="1.8" stroke-linecap="round" stroke-linejoin="round"/>
  <line x1="10" y1="80" x2="310" y2="80" stroke="#454545"/>
  <rect x="10" y="90" width="46" height="18" rx="5" stroke="#8A8A8A" fill="#1A1A1A"/>
  <text x="23" y="101" font-size="8" fill="#E8E8E8" font-family="Arial, sans-serif">All</text>
  <rect x="62" y="90" width="66" height="18" rx="5" stroke="#666" fill="#1A1A1A"/>
  <text x="76" y="101" font-size="8" fill="#9D9D9D" font-family="Arial, sans-serif">Ranks</text>
  <rect x="10" y="116" width="300" height="44" rx="5" fill="#141414" stroke="#5A5A5A"/>
  <line x1="10" y1="132" x2="310" y2="132" stroke="#5A5A5A"/>
  <line x1="10" y1="146" x2="310" y2="146" stroke="#5A5A5A"/>
  <line x1="56" y1="116" x2="56" y2="160" stroke="#5A5A5A"/>
  <line x1="96" y1="116" x2="96" y2="160" stroke="#5A5A5A"/>
  <line x1="160" y1="116" x2="160" y2="160" stroke="#5A5A5A"/>
  <text x="16" y="127" font-size="6" fill="#9D9D9D" font-family="Arial, sans-serif">Act</text>
  <text x="65" y="127" font-size="6" fill="#9D9D9D" font-family="Arial, sans-serif">Votes</text>
  <text x="107" y="127" font-size="6" fill="#9D9D9D" font-family="Arial, sans-serif">Author</text>
  <text x="171" y="127" font-size="6" fill="#9D9D9D" font-family="Arial, sans-serif">Idea</text>
 <text x="66" y="141" font-size="7" fill="#E8E8E8" font-family="Arial, sans-serif">0</text>
  <text x="107" y="141" font-size="7" fill="#E8E8E8" font-family="Arial, sans-serif">ainurakk</text>
  <text x="171" y="141" font-size="7" fill="#E8E8E8" font-family="Arial, sans-serif">great idea</text>
 <text x="66" y="154" font-size="7" fill="#E8E8E8" font-family="Arial, sans-serif">1</text>
  <text x="107" y="154" font-size="7" fill="#E8E8E8" font-family="Arial, sans-serif">ainurakk</text>
  <text x="171" y="154" font-size="7" fill="#E8E8E8" font-family="Arial, sans-serif">another idea</text>
</svg>
