<svg width="320" height="180" viewBox="0 0 320 180" fill="none" xmlns="http://www.w3.org/2000/svg">
  <rect width="320" height="180" fill="#171717"/>
  <text x="10" y="20" font-size="10" fill="#E8E8E8" font-family="Arial, sans-serif">Current Progress</text>
  <rect x="10" y="28" width="300" height="5" rx="2.5" fill="#7A7A7A" opacity="0.8"/>
  <rect x="10" y="36" width="170" height="5" rx="2.5" fill="#666" opacity="0.7"/>
  <line x1="10" y1="48" x2="310" y2="48" stroke="#454545"/>
  <rect x="10" y="54" width="44" height="6" rx="3" fill="#EAEAEA"/>
  <line x1="10" y1="66" x2="310" y2="66" stroke="#454545"/>
  <rect x="10" y="70" width="48" height="14" rx="4" stroke="#626262" fill="#1A1A1D"/>
  <text x="16" y="79" font-size="6" fill="#ACACAC" font-family="Arial, sans-serif">Dismissed</text>
  <rect x="10" y="90" width="100" height="14" fill="#0B0C10"/>
  <rect x="110" y="90" width="100" height="14" fill="#0B0C10"/>
  <rect x="210" y="90" width="100" height="14" fill="#0B0C10"/>
  <text x="14" y="99" font-size="7" fill="#F43F5E" font-family="Arial, sans-serif">Todo</text>
  <text x="114" y="99" font-size="7" fill="#A3A3A3" font-family="Arial, sans-serif">In Progress</text>
  <text x="214" y="99" font-size="7" fill="#16A34A" font-family="Arial, sans-serif">Done</text>
  <line x1="10" y1="104" x2="310" y2="104" stroke="#454545"/>
  <line x1="110" y1="104" x2="110" y2="176" stroke="#454545"/>
  <line x1="210" y1="104" x2="210" y2="176" stroke="#454545"/>
  <line x1="10" y1="140" x2="310" y2="140" stroke="#454545"/>
  <rect x="20" y="112" width="30" height="11" rx="4" fill="#0A0B0E"/>
  <text x="24" y="120" font-size="6" fill="#D2D2D2" font-family="Arial, sans-serif">Todo</text>
  <rect x="120" y="112" width="44" height="11" rx="4" fill="#0A0B0E"/>
  <text x="124" y="120" font-size="6" fill="#D2D2D2" font-family="Arial, sans-serif">In Prog</text>
  <rect x="220" y="112" width="30" height="11" rx="4" fill="#0A0B0E"/>
  <text x="224" y="120" font-size="6" fill="#D2D2D2" font-family="Arial, sans-serif">Done</text>
  <rect x="14" y="126" width="78" height="6" rx="3" fill="#D8D8D8"/>
  <rect x="114" y="126" width="88" height="6" rx="3" fill="#D8D8D8"/>
  <rect x="214" y="126" width="88" height="6" rx="3" fill="#D8D8D8"/>
  <rect x="114" y="150" width="82" height="6" rx="3" fill="#D8D8D8"/>
  <rect x="214" y="150" width="82" height="6" rx="3" fill="#D8D8D8"/>
  <line x1="10" y1="176" x2="310" y2="176" stroke="#454545"/>
</svg>
