<svg width="320" height="180" viewBox="0 0 320 180" fill="none" xmlns="http://www.w3.org/2000/svg">
  <rect width="320" height="180" fill="#171717"/>
  <text x="10" y="20" font-size="10" fill="#E8E8E8" font-family="Arial, sans-serif">Submit ideas to the creator</text>
  <rect x="10" y="28" width="210" height="5" rx="2.5" fill="#777"/>
  <line x1="10" y1="40" x2="310" y2="40" stroke="#454545"/>
  <rect x="10" y="46" width="42" height="6" rx="3" fill="#EAEAEA"/>
  <line x1="10" y1="58" x2="310" y2="58" stroke="#454545"/>
  <rect x="10" y="63" width="28" height="11" rx="4" stroke="#666" fill="#1A1A1A"/>
  <text x="14" y="71" font-size="6" fill="#BDBDBD" font-family="Arial, sans-serif">Grid</text>
  <rect x="42" y="63" width="34" height="11" rx="4" stroke="#666" fill="#1A1A1A"/>
  <text x="47" y="71" font-size="6" fill="#BDBDBD" font-family="Arial, sans-serif">Accepted</text>
  <rect x="80" y="63" width="34" height="11" rx="4" stroke="#666" fill="#1A1A1A"/>
  <text x="86" y="71" font-size="6" fill="#BDBDBD" font-family="Arial, sans-serif">Pending</text>
  <rect x="118" y="63" width="42" height="11" rx="4" stroke="#666" fill="#1A1A1A"/>
  <text x="124" y="71" font-size="6" fill="#BDBDBD" font-family="Arial, sans-serif">Dismissed</text>
  <rect x="10" y="80" width="95" height="86" rx="5" fill="#1B2B21" stroke="#16A34A"/>
  <rect x="112" y="80" width="95" height="86" rx="5" fill="#1C1C1E" stroke="#5A5A5A"/>
  <rect x="214" y="80" width="96" height="86" rx="5" fill="#2B1E1F" stroke="#E11D48"/>
  <rect x="16" y="88" width="72" height="6" rx="3" fill="#E6E6E6"/>
  <rect x="16" y="98" width="64" height="6" rx="3" fill="#BFBFBF"/>
  <rect x="118" y="88" width="72" height="6" rx="3" fill="#E6E6E6"/>
  <rect x="118" y="98" width="60" height="6" rx="3" fill="#BFBFBF"/>
  <rect x="220" y="88" width="72" height="6" rx="3" fill="#E6E6E6"/>
  <rect x="220" y="98" width="60" height="6" rx="3" fill="#BFBFBF"/>
  <rect x="16" y="136" width="40" height="14" rx="3" stroke="#646464"/>
  <rect x="58" y="136" width="40" height="14" rx="3" stroke="#646464"/>
  <rect x="118" y="136" width="40" height="14" rx="3" stroke="#646464"/>
  <rect x="160" y="136" width="40" height="14" rx="3" stroke="#646464"/>
  <rect x="220" y="136" width="40" height="14" rx="3" stroke="#646464"/>
  <rect x="262" y="136" width="40" height="14" rx="3" stroke="#646464"/>
</svg>
