<svg width="320" height="180" viewBox="0 0 320 180" fill="none" xmlns="http://www.w3.org/2000/svg">
  <rect width="320" height="180" fill="#171717"/>
  <text x="10" y="20" font-size="10" fill="#E8E8E8" font-family="Arial, sans-serif">Select field setup</text>
  <rect x="10" y="28" width="205" height="5" rx="2.5" fill="#777"/>
  <line x1="10" y1="40" x2="310" y2="40" stroke="#454545"/>
  <rect x="10" y="46" width="35" height="6" rx="3" fill="#EAEAEA"/>
  <line x1="10" y1="58" x2="310" y2="58" stroke="#454545"/>
  <rect x="10" y="66" width="120" height="6" rx="3" fill="#E0E0E0"/>
  <rect x="10" y="76" width="188" height="5" rx="2.5" fill="#8A8A8A"/>
  <rect x="10" y="86" width="170" height="18" rx="4" fill="#152238" stroke="#0061FF"/>
  <rect x="15" y="91" width="5" height="5" rx="1.5" fill="#0061FF"/>
  <text x="28" y="97" font-size="7" fill="#D8D8D8" font-family="Arial, sans-serif">Starter</text>
  <rect x="10" y="108" width="170" height="18" rx="4" fill="#1D1D1F" stroke="#5A5A5A"/>
  <circle cx="17" cy="117" r="3.5" fill="#0A0A0A" stroke="#303030"/>
  <text x="28" y="120" font-size="7" fill="#D8D8D8" font-family="Arial, sans-serif">Growth</text>
  <line x1="10" y1="132" x2="310" y2="132" stroke="#454545"/>
</svg>
