<svg width="320" height="180" viewBox="0 0 320 180" fill="none" xmlns="http://www.w3.org/2000/svg">
  <rect width="320" height="180" fill="#171717"/>
  <rect x="10" y="24" width="300" height="132" rx="4" stroke="#454545" fill="#171717"/>
  <line x1="10" y1="68" x2="310" y2="68" stroke="#454545"/>
  <line x1="10" y1="112" x2="310" y2="112" stroke="#454545"/>
  <line x1="110" y1="24" x2="110" y2="156" stroke="#454545"/>
  <line x1="210" y1="24" x2="210" y2="156" stroke="#454545"/>
  <rect x="20" y="44" width="72" height="6" rx="3" fill="#8A8A8A"/>
  <rect x="120" y="44" width="52" height="6" rx="3" fill="#8A8A8A"/>
  <rect x="220" y="44" width="68" height="6" rx="3" fill="#8A8A8A"/>
  <rect x="20" y="88" width="58" height="6" rx="3" fill="#8A8A8A"/>
  <rect x="120" y="88" width="74" height="6" rx="3" fill="#8A8A8A"/>
  <rect x="220" y="88" width="48" height="6" rx="3" fill="#8A8A8A"/>
  <rect x="20" y="132" width="78" height="6" rx="3" fill="#8A8A8A"/>
  <rect x="120" y="132" width="62" height="6" rx="3" fill="#8A8A8A"/>
  <rect x="220" y="132" width="76" height="6" rx="3" fill="#8A8A8A"/>
</svg>
